# xmcd
#
# Track frame offsets:
#  150
#  32852
#  58800
#  104537
#  136277
#  169207
#  198357
#  219482
#  251235
#  286200
#  311420
#
# Disc length: 4579 seconds
#
# Revision: 0
# Processed by: cddbd v1.5.1PL2 Copyright (c) Steve Scherf et al.
# Submitted via: Collectorz.com_Music_Collector 6.11
#
DISCID=a811e10b
DTITLE=Nick Moss and The Flip Tops - Live At Chan's
DYEAR=2006
DGENRE=Blues -  Blues Chicago
TTITLE0=Eggroll Stroll
TTITLE1=Check My Pulse
TTITLE2=I Love The Woman
TTITLE3=I Never Forget
TTITLE4=One-Eyed Jack
TTITLE5=Your Red Wagon
TTITLE6=Just Like That
TTITLE7=It's Good In Your Neighborhood
TTITLE8=The End
TTITLE9=Wine-O-Baby Boogie
TTITLE10=Move Over, Morris
EXTD=
EXTT0=
EXTT1=
EXTT2=
EXTT3=
EXTT4=
EXTT5=
EXTT6=
EXTT7=
EXTT8=
EXTT9=
EXTT10=
PLAYORDER=
